<svg xmlns="http://www.w3.org/2000/svg" xmlns:xlink="http://www.w3.org/1999/xlink" version="1.1" x="0px" y="0px" viewBox="0 0 32 40" enable-background="new 0 0 32 32" xml:space="preserve"><g><path d="M28,8c0-0.3920898-0.2290039-0.7480469-0.5864258-0.9101563l-11-5c-0.2626953-0.1201172-0.5644531-0.1201172-0.8271484,0   l-11,5C4.2290039,7.2519531,4,7.6079102,4,8s0.2290039,0.7480469,0.5864258,0.9101563l11,5   C15.7177734,13.9702148,15.8588867,14,16,14s0.2822266-0.0297852,0.4135742-0.0898438l11-5C27.7709961,8.7480469,28,8.3920898,28,8   z"/><path d="M14.4135742,16.0898438l-11-5c-0.3081055-0.1401367-0.668457-0.1142578-0.9550781,0.0693359   C2.1728516,11.3432617,2,11.6601563,2,12v12c0,0.3920898,0.2290039,0.7480469,0.5864258,0.9101563l11,5   C13.7182617,29.9702148,13.859375,30,14,30c0.1889648,0,0.3774414-0.0537109,0.5415039-0.1591797   C14.8271484,29.6567383,15,29.3398438,15,29V17C15,16.6079102,14.7709961,16.2519531,14.4135742,16.0898438z"/><path d="M29.5415039,11.1591797c-0.2861328-0.1845703-0.6464844-0.2099609-0.9550781-0.0693359l-11,5   C17.2290039,16.2519531,17,16.6079102,17,17v12c0,0.3398438,0.1728516,0.6567383,0.4584961,0.8408203   C17.6225586,29.9462891,17.8110352,30,18,30c0.140625,0,0.2817383-0.0297852,0.4135742-0.0898438l11-5   C29.7709961,24.7480469,30,24.3920898,30,24V12C30,11.6601563,29.8271484,11.3432617,29.5415039,11.1591797z"/></g><text x="0" y="47" fill="#000000" font-size="5px" font-weight="bold" font-family="'Helvetica Neue', Helvetica, Arial-Unicode, Arial, Sans-serif">Created by M. Oki Orlando</text><text x="0" y="52" fill="#000000" font-size="5px" font-weight="bold" font-family="'Helvetica Neue', Helvetica, Arial-Unicode, Arial, Sans-serif">from the Noun Project</text></svg>